<svg xmlns="http://www.w3.org/2000/svg" width="244.586" height="34.692" viewBox="0 0 244.586 34.692">
  <path id="header-logo-open" d="M30.386-15.569a14.789,14.789,0,0,1-2.333,8.152,16.423,16.423,0,0,1-6.178,5.7A17.152,17.152,0,0,1,13.655.342,12.293,12.293,0,0,1,7.972-.983,10.344,10.344,0,0,1,3.845-4.76a10.437,10.437,0,0,1-1.538-5.665,14.732,14.732,0,0,1,2.222-7.81,16.7,16.7,0,0,1,6.007-5.828A16.1,16.1,0,0,1,18.73-26.25a12.922,12.922,0,0,1,5.939,1.35,10.417,10.417,0,0,1,4.187,3.777A10.2,10.2,0,0,1,30.386-15.569ZM14.595-4.2a6.836,6.836,0,0,0,4.828-1.888A12.116,12.116,0,0,0,22.5-10.784a15.312,15.312,0,0,0,1.051-5.383,5.431,5.431,0,0,0-1.538-3.973A5.3,5.3,0,0,0,18.064-21.7a6.818,6.818,0,0,0-4.64,1.8,11.988,11.988,0,0,0-3.162,4.554A14.345,14.345,0,0,0,9.143-9.912a5.761,5.761,0,0,0,1.47,4.2A5.312,5.312,0,0,0,14.595-4.2Zm36.04-13.757-1.077,4.8a7.686,7.686,0,0,0-1.692-.205q-4.478,0-5.725,5.845l-.854,3.708h2.8L43.218,0H32.759l.872-3.811H35.8L38.177-14.1H35.733l.872-3.862h7.314l-1.23,5.229.068.068a14.423,14.423,0,0,1,3.008-4.264,4.986,4.986,0,0,1,3.333-1.2A8.96,8.96,0,0,1,50.635-17.961ZM70.1-12.92a10.054,10.054,0,0,1-.273,2L68.15-3.811h3.008L70.064,0H61.776l.342-1.436A9.266,9.266,0,0,1,57.264.239,5.586,5.586,0,0,1,53.41-1.136a4.567,4.567,0,0,1-1.547-3.58A5.6,5.6,0,0,1,54.316-9.7a11.5,11.5,0,0,1,6.52-1.649,9.468,9.468,0,0,1,2.3.248q.983.248,1.154.282.068-.273.214-.872a4.405,4.405,0,0,0,.145-1.008,1.81,1.81,0,0,0-.9-1.581,4.043,4.043,0,0,0-2.264-.59A9.455,9.455,0,0,0,57.3-13.655l-2.734-2.683a16.324,16.324,0,0,1,7.81-2.068,10.351,10.351,0,0,1,5.52,1.359A4.52,4.52,0,0,1,70.1-12.92ZM59.075-3.213A6.674,6.674,0,0,0,62.887-4.8l.667-2.939a10.211,10.211,0,0,0-2.717-.376,4.748,4.748,0,0,0-2.726.769,2.41,2.41,0,0,0-1.136,2.1,1.931,1.931,0,0,0,.615,1.436A2.055,2.055,0,0,0,59.075-3.213Zm36.433-10.75a6.253,6.253,0,0,1-.1,1.1q-.1.573-.359,1.632L93.339-3.811h2.444L94.911,0H86.964L89.6-11.348a6.054,6.054,0,0,0,.137-.974,1.747,1.747,0,0,0-.333-1.119,1.2,1.2,0,0,0-1-.419q-1.367,0-4.084,2L82.452-3.811h2.273L83.854,0H74.13L75-3.811h1.965L79.342-14.1h-2.7l.872-3.862h8.2l-.53,2.239a13.654,13.654,0,0,1,3.264-1.914,9.35,9.35,0,0,1,3.281-.53,3.5,3.5,0,0,1,2.743,1.154A4.4,4.4,0,0,1,95.509-13.962Zm19.139-1.025.7-2.974h7.588l-.872,3.862h-1.982L116.921-.564q-2.068,9.006-11.16,9.006a17.633,17.633,0,0,1-8.22-1.76L99.215,2.7a14.359,14.359,0,0,0,5.879,1.538,7.779,7.779,0,0,0,3.409-.615A4.486,4.486,0,0,0,110.461,1.7a14.368,14.368,0,0,0,1.248-3.666l-.068-.1a7.082,7.082,0,0,1-4.871,2.2,5.845,5.845,0,0,1-4.794-2.008,8.265,8.265,0,0,1-1.649-5.409,12.045,12.045,0,0,1,1.2-5.289,10.438,10.438,0,0,1,3.333-4.025,8.047,8.047,0,0,1,4.819-1.538A5.487,5.487,0,0,1,114.648-14.988Zm-5.742,10.92a3.5,3.5,0,0,0,2.538-1.008,6.282,6.282,0,0,0,1.547-2.5,9.024,9.024,0,0,0,.513-2.957,3.57,3.57,0,0,0-.795-2.4,2.636,2.636,0,0,0-2.111-.931,3.428,3.428,0,0,0-2.5,1.068,7.093,7.093,0,0,0-1.632,2.589,8.312,8.312,0,0,0-.564,2.888,3.429,3.429,0,0,0,.786,2.358A2.81,2.81,0,0,0,108.905-4.067Zm34.212-6.289a12.123,12.123,0,0,1-.256,2.512H130.129a4.915,4.915,0,0,0-.137,1.162,3.8,3.8,0,0,0,.906,2.623,3.109,3.109,0,0,0,2.444,1.017,4.185,4.185,0,0,0,3.674-2.307l4.067,1.812A8.548,8.548,0,0,1,137.648-.47,10.542,10.542,0,0,1,133,.53a8.363,8.363,0,0,1-5.964-2.085,7.427,7.427,0,0,1-2.222-5.691,12.393,12.393,0,0,1,1.256-5.511,10.084,10.084,0,0,1,3.623-4.11,9.826,9.826,0,0,1,5.477-1.538,8.508,8.508,0,0,1,4.11.974,6.943,6.943,0,0,1,2.82,2.811A8.662,8.662,0,0,1,143.117-10.356Zm-5.144-1.265a3.446,3.446,0,0,0-.735-2.324,2.621,2.621,0,0,0-2.1-.854q-3.162,0-4.341,4.016H137.9A6.928,6.928,0,0,0,137.973-11.621ZM148-6.614l1.094-4.734h8.921l-1.077,4.734Zm29.375-10.151.273-1.2h4.033l-1.538,6.733h-4.033q-.205-2.6-2.974-2.6a3.832,3.832,0,0,0-2.64.983,6.165,6.165,0,0,0-1.666,2.487,8.6,8.6,0,0,0-.564,3.042,3.626,3.626,0,0,0,.846,2.452,2.818,2.818,0,0,0,2.247.983,4.726,4.726,0,0,0,4.119-2.7l3.965,1.965Q176.353.53,170.833.53a9.228,9.228,0,0,1-4.307-.966A6.907,6.907,0,0,1,163.638-3.2a8.376,8.376,0,0,1-1.025-4.213,10.825,10.825,0,0,1,1.376-5.323A10.331,10.331,0,0,1,167.8-16.68a10.049,10.049,0,0,1,5.238-1.453A7.334,7.334,0,0,1,177.378-16.765Zm25.787,6.238a11,11,0,0,1-1.47,5.614,10.731,10.731,0,0,1-3.99,3.99A10.877,10.877,0,0,1,192.176.53,8.62,8.62,0,0,1,188.1-.4a6.863,6.863,0,0,1-2.769-2.623,7.615,7.615,0,0,1-1-3.948,11.956,11.956,0,0,1,1.384-5.665,10.725,10.725,0,0,1,3.939-4.2,10.689,10.689,0,0,1,5.717-1.572,8.152,8.152,0,0,1,4.025.991,7,7,0,0,1,2.777,2.777A8.328,8.328,0,0,1,203.165-10.527ZM192.535-3.5a3.664,3.664,0,0,0,2.76-1.222,7.857,7.857,0,0,0,1.735-2.991,10.72,10.72,0,0,0,.581-3.341,3.822,3.822,0,0,0-.718-2.4,2.4,2.4,0,0,0-2.017-.931,3.563,3.563,0,0,0-2.76,1.248,7.972,7.972,0,0,0-1.666,3.016,11.327,11.327,0,0,0-.547,3.341,3.775,3.775,0,0,0,.7,2.375A2.307,2.307,0,0,0,192.535-3.5Zm30.9-14.458-1.077,4.8a7.686,7.686,0,0,0-1.692-.205q-4.478,0-5.725,5.845l-.854,3.708h2.8L216.014,0H205.555l.872-3.811h2.17L210.973-14.1h-2.444l.872-3.862h7.314l-1.23,5.229.068.068a14.423,14.423,0,0,1,3.008-4.264,4.986,4.986,0,0,1,3.333-1.2A8.96,8.96,0,0,1,223.431-17.961Zm23.462,7.109a13.436,13.436,0,0,1-1.136,5.392,10.888,10.888,0,0,1-3.273,4.307A7.8,7.8,0,0,1,237.511.53,5.8,5.8,0,0,1,232.3-2.41l-1.572,6.75H233.7l-.906,3.811H221.771l.906-3.811h2.563l4.221-18.44H226.95l.872-3.862h8.049l-.6,2.393.068.068a7.524,7.524,0,0,1,5.435-2.666,5.57,5.57,0,0,1,3.281.983,6.115,6.115,0,0,1,2.119,2.64A9.2,9.2,0,0,1,246.894-10.852ZM236.571-3.708a3.518,3.518,0,0,0,2.606-1.085,6.82,6.82,0,0,0,1.6-2.675,9.754,9.754,0,0,0,.53-3.093,3.546,3.546,0,0,0-.778-2.393,2.58,2.58,0,0,0-2.059-.906,3.534,3.534,0,0,0-2.521,1.085,7.37,7.37,0,0,0-1.735,2.675,8.3,8.3,0,0,0-.615,2.991,3.664,3.664,0,0,0,.82,2.4A2.65,2.65,0,0,0,236.571-3.708Z" transform="translate(-2.307 26.25)" fill="#fff"/>
</svg>
